<svg width="944" height="367" viewBox="0 0 190 250" fill="none" xmlns="http://www.w3.org/2000/svg">
<mask id="mask0_406_155" style="mask-type:luminance" maskUnits="userSpaceOnUse" x="5" y="14" width="195" height="195">
<path d="M102.517 208.493C156.02 208.493 199.393 165.089 199.393 111.548C199.393 58.0075 156.02 14.604 102.517 14.604C49.0138 14.604 5.64087 58.0075 5.64087 111.548C5.64087 165.089 49.0138 208.493 102.517 208.493Z" fill="white"/>
</mask>
<g mask="url(#mask0_406_155)">
<path d="M159.96 45.4683H140.657V123.977H159.96V45.4683Z" fill="#000000"/>
<path d="M182.264 101.243H120.94V330.76H182.264V101.243Z" fill="#000000"/>
</g>
<mask id="mask1_406_155" style="mask-type:luminance" maskUnits="userSpaceOnUse" x="5" y="14" width="195" height="195">
<path d="M102.517 208.493C156.02 208.493 199.393 165.089 199.393 111.548C199.393 58.0075 156.02 14.604 102.517 14.604C49.0138 14.604 5.64087 58.0075 5.64087 111.548C5.64087 165.089 49.0138 208.493 102.517 208.493Z" fill="white"/>
</mask>
<g mask="url(#mask1_406_155)">
<path d="M108.934 84.5161H72.916V147.126H108.934V84.5161Z" fill="#000000"/>
</g>
<mask id="mask2_406_155" style="mask-type:luminance" maskUnits="userSpaceOnUse" x="5" y="14" width="195" height="195">
<path d="M102.517 208.493C156.02 208.493 199.393 165.089 199.393 111.548C199.393 58.0075 156.02 14.604 102.517 14.604C49.0138 14.604 5.64087 58.0075 5.64087 111.548C5.64087 165.089 49.0138 208.493 102.517 208.493Z" fill="white"/>
</mask>
<g mask="url(#mask2_406_155)">
<path d="M108.934 159.141H72.916V226.929H108.934V159.141Z" fill="#000000"/>
</g>
<mask id="mask3_406_155" style="mask-type:luminance" maskUnits="userSpaceOnUse" x="5" y="14" width="195" height="195">
<path d="M102.517 208.493C156.02 208.493 199.393 165.089 199.393 111.548C199.393 58.0075 156.02 14.604 102.517 14.604C49.0138 14.604 5.64087 58.0075 5.64087 111.548C5.64087 165.089 49.0138 208.493 102.517 208.493Z" fill="white"/>
</mask>
<g mask="url(#mask3_406_155)">
<path d="M59.6679 84.5161H23.6498V147.126H59.6679V84.5161Z" fill="#000000"/>
</g>
<mask id="mask4_406_155" style="mask-type:luminance" maskUnits="userSpaceOnUse" x="5" y="14" width="195" height="195">
<path d="M102.517 208.493C156.02 208.493 199.393 165.089 199.393 111.548C199.393 58.0075 156.02 14.604 102.517 14.604C49.0138 14.604 5.64087 58.0075 5.64087 111.548C5.64087 165.089 49.0138 208.493 102.517 208.493Z" fill="white"/>
</mask>
<g mask="url(#mask4_406_155)">
<path d="M108.934 4.29834H72.916V72.0869H108.934V4.29834Z" fill="#000000"/>
</g>
<mask id="mask5_406_155" style="mask-type:luminance" maskUnits="userSpaceOnUse" x="5" y="14" width="195" height="195">
<path d="M102.517 208.493C156.02 208.493 199.393 165.089 199.393 111.548C199.393 58.0075 156.02 14.604 102.517 14.604C49.0138 14.604 5.64087 58.0075 5.64087 111.548C5.64087 165.089 49.0138 208.493 102.517 208.493Z" fill="white"/>
</mask>
<g mask="url(#mask5_406_155)">
<path d="M59.6679 4.29834H23.6498V72.0869H59.6679V4.29834Z" fill="#000000"/>
</g>
<mask id="mask6_406_155" style="mask-type:luminance" maskUnits="userSpaceOnUse" x="5" y="14" width="195" height="195">
<path d="M102.517 208.493C156.02 208.493 199.393 165.089 199.393 111.548C199.393 58.0075 156.02 14.604 102.517 14.604C49.0138 14.604 5.64087 58.0075 5.64087 111.548C5.64087 165.089 49.0138 208.493 102.517 208.493Z" fill="white"/>
</mask>
<g mask="url(#mask6_406_155)">
<path d="M59.2022 159.141H23.1841V226.929H59.2022V159.141Z" fill="#000"/>
</g>
<path d="M99.5155 211.911C79.8413 211.921 60.6059 206.092 44.2424 195.161C27.8788 184.231 15.1222 168.689 7.58613 150.503C0.0500215 132.316 -1.92708 112.302 1.90491 92.9907C5.73689 73.6796 15.2058 55.9396 29.114 42.0144C43.0222 28.0891 60.7448 18.6043 80.0403 14.7596C99.3358 10.9149 119.337 12.883 137.515 20.4149C155.693 27.9468 171.23 40.7043 182.161 57.0736C193.093 73.443 198.928 92.6888 198.928 112.377C198.928 138.766 188.455 164.075 169.814 182.74C151.172 201.404 125.886 211.897 99.5155 211.911ZM99.5155 18.0219C80.8523 18.0117 62.6054 23.5412 47.0833 33.9108C31.5612 44.2804 19.4613 59.0242 12.3145 76.2769C5.16764 93.5296 3.29503 112.516 6.93353 130.834C10.572 149.152 19.5581 165.978 32.755 179.184C45.9519 192.391 62.7665 201.383 81.0716 205.024C99.3767 208.665 118.35 206.791 135.59 199.639C152.831 192.487 167.564 180.379 177.927 164.846C188.289 149.313 193.814 131.053 193.804 112.377C193.791 87.3567 183.852 63.3651 166.173 45.673C148.493 27.981 124.518 18.0357 99.5155 18.0219Z" fill="#000"/>

</svg>
